<svg width="1200" height="760" viewBox="0 0 1200 760" fill="none" xmlns="http://www.w3.org/2000/svg" role="img" aria-label="LootCheck options page preview">
  <rect width="1200" height="760" fill="#F4F2EC"/>
  <rect x="70" y="50" width="1060" height="170" rx="12" fill="#FFFDF8" stroke="#D8D1C4"/>
  <rect x="96" y="78" width="58" height="58" rx="14" fill="#111816"/>
  <path d="M109 105C109 96.7 115.7 90 124 90H136C144.3 90 151 96.7 151 105V108H109V105Z" fill="#D9912B"/>
  <path d="M115 105C115 99.5 119.5 95 125 95H135C140.5 95 145 99.5 145 105V108H115V105Z" fill="#17211F"/>
  <path d="M109 107H151V123C151 128 147 132 142 132H118C113 132 109 128 109 123V107Z" fill="#17211F"/>
  <path d="M109 107H151V115H109V107Z" fill="#D9912B"/>
  <rect x="126" y="101" width="8" height="25" fill="#FFD979"/>
  <rect x="123" y="111" width="14" height="13" rx="4" fill="#D9912B"/>
  <circle cx="130" cy="121" r="15" fill="#101513" stroke="#FFD979" stroke-width="3"/>
  <path d="M122 121L128 127L140 114" stroke="#2BBF94" stroke-width="5" stroke-linecap="round" stroke-linejoin="round"/>
  <text x="178" y="97" fill="#0F5D4B" font-family="Inter, Arial, sans-serif" font-size="13" font-weight="800">GAME LIBRARY CHECKER</text>
  <text x="178" y="148" fill="#17211F" font-family="Inter, Arial, sans-serif" font-size="48" font-weight="850">LootCheck</text>
  <text x="178" y="183" fill="#65736E" font-family="Inter, Arial, sans-serif" font-size="18">Import your libraries once. See a quiet banner only when you already own the game.</text>
  <rect x="70" y="250" width="1060" height="220" rx="12" fill="#FFFDF8" stroke="#D8D1C4"/>
  <text x="96" y="290" fill="#0F5D4B" font-family="Inter, Arial, sans-serif" font-size="12" font-weight="800">ACCOUNTS AND IMPORTS</text>
  <text x="96" y="328" fill="#17211F" font-family="Inter, Arial, sans-serif" font-size="32" font-weight="850">Providers</text>
  <g>
    <rect x="96" y="360" width="238" height="82" rx="10" fill="#F4F2EC" stroke="#D8D1C4"/>
    <text x="116" y="394" fill="#17211F" font-family="Inter, Arial, sans-serif" font-size="20" font-weight="800">Steam</text>
    <text x="116" y="423" fill="#65736E" font-family="Inter, Arial, sans-serif" font-size="14">Browser session ready</text>
  </g>
  <g>
    <rect x="356" y="360" width="238" height="82" rx="10" fill="#F4F2EC" stroke="#D8D1C4"/>
    <text x="376" y="394" fill="#17211F" font-family="Inter, Arial, sans-serif" font-size="20" font-weight="800">GOG</text>
    <text x="376" y="423" fill="#65736E" font-family="Inter, Arial, sans-serif" font-size="14">Connected</text>
  </g>
  <g>
    <rect x="616" y="360" width="238" height="82" rx="10" fill="#F4F2EC" stroke="#D8D1C4"/>
    <text x="636" y="394" fill="#17211F" font-family="Inter, Arial, sans-serif" font-size="20" font-weight="800">Epic Games</text>
    <text x="636" y="423" fill="#65736E" font-family="Inter, Arial, sans-serif" font-size="14">Authorization code</text>
  </g>
  <g>
    <rect x="876" y="360" width="218" height="82" rx="10" fill="#DCEEE7" stroke="#16745F"/>
    <text x="896" y="394" fill="#17211F" font-family="Inter, Arial, sans-serif" font-size="20" font-weight="800">Amazon</text>
    <text x="896" y="423" fill="#31524A" font-family="Inter, Arial, sans-serif" font-size="14">Year-by-year import</text>
  </g>
  <rect x="70" y="500" width="1060" height="210" rx="12" fill="#FFFDF8" stroke="#D8D1C4"/>
  <text x="96" y="540" fill="#0F5D4B" font-family="Inter, Arial, sans-serif" font-size="12" font-weight="800">LIBRARY BROWSER</text>
  <text x="96" y="578" fill="#17211F" font-family="Inter, Arial, sans-serif" font-size="32" font-weight="850">Library</text>
  <rect x="96" y="610" width="250" height="34" rx="8" fill="#F4F2EC" stroke="#BFB6A7"/>
  <rect x="364" y="610" width="250" height="34" rx="8" fill="#F4F2EC" stroke="#BFB6A7"/>
  <rect x="632" y="610" width="250" height="34" rx="8" fill="#F4F2EC" stroke="#BFB6A7"/>
  <rect x="96" y="664" width="1000" height="1" fill="#D8D1C4"/>
  <rect x="96" y="686" width="430" height="12" rx="6" fill="#D8D1C4"/>
  <rect x="602" y="686" width="140" height="12" rx="6" fill="#D8D1C4"/>
  <rect x="812" y="686" width="210" height="12" rx="6" fill="#D8D1C4"/>
</svg>
